<?xml version="1.0" encoding="utf-8"?>
<!-- Generator: Adobe Illustrator 26.0.2, SVG Export Plug-In . SVG Version: 6.00 Build 0)  -->
<svg version="1.1" xmlns="http://www.w3.org/2000/svg" xmlns:xlink="http://www.w3.org/1999/xlink" x="0px" y="0px"
	 viewBox="0 0 53.62 50.1" style="enable-background:new 0 0 53.62 50.1;" xml:space="preserve">
<style type="text/css">
	.st0{display:none;}
	.st1{display:inline;}
	.st2{fill:#FFDD06;}
	.st3{fill:#010202;}
	.st4{fill:#FFFFFF;}
	.st5{display:inline;fill:#52595F;}
</style>
<g id="Layer_1" class="st0">
	<g class="st1">
		<g>
			<path class="st2" d="M17.54,23.87H9.43C10.7,5.97,27.3,5.71,27.3,5.71l0.04,8.18C27.34,13.9,18.49,14.45,17.54,23.87z"/>
			<path class="st2" d="M28.22,13.81V5.7c17.9,1.26,18.16,17.86,18.16,17.86l-8.18,0.04C38.2,23.61,37.64,14.76,28.22,13.81z"/>
			<path class="st2" d="M38.13,24.71h8.11c-1.26,17.9-17.86,18.16-17.86,18.16l-0.04-8.18C28.34,34.69,37.18,34.13,38.13,24.71z"/>
			<path class="st2" d="M27.33,15.02v8.87l-8.95-0.02C18.38,23.87,18.95,15.68,27.33,15.02z"/>
			<path class="st2" d="M37.13,23.93h-8.87l0.02-8.95C28.27,14.98,36.46,15.54,37.13,23.93z"/>
			<path class="st2" d="M28.22,33.58v-8.87l8.95,0.02C37.17,24.73,36.6,32.92,28.22,33.58z"/>
			<path class="st2" d="M27.33,24.83l-8.95,0l0.08,15.3C18.46,40.13,27.47,35.51,27.33,24.83z"/>
			<path class="st2" d="M9.42,42.87V24.83h8.13V40.5C17.54,40.5,17.16,41.66,9.42,42.87z"/>
		</g>
		<path class="st2" d="M10.13,54.94c0-3.36,2.49-5.75,5.88-5.75c3.38,0,5.86,2.38,5.86,5.75c0,3.37-2.47,5.77-5.86,5.77
			C12.62,60.71,10.13,58.3,10.13,54.94z M19.8,54.94c0-2.4-1.62-3.96-3.79-3.96c-2.17,0-3.81,1.56-3.81,3.96
			c0,2.41,1.64,3.98,3.81,3.98C18.18,58.92,19.8,57.34,19.8,54.94z"/>
		<path class="st2" d="M33.26,54.94c0,3.47-2.41,5.77-5.71,5.77c-1.6,0-3-0.62-3.94-1.83v5.83h-2.04V49.3h1.96v1.79
			c0.92-1.26,2.36-1.9,4.02-1.9C30.85,49.19,33.26,51.49,33.26,54.94z M31.19,54.94c0-2.38-1.64-3.96-3.81-3.96
			c-2.15,0-3.79,1.58-3.79,3.96c0,2.41,1.64,3.98,3.79,3.98C29.55,58.92,31.19,57.34,31.19,54.94z"/>
		<path class="st2" d="M43.53,54.09v6.49h-2.04v-6.26c0-2.21-1.11-3.3-3.05-3.3c-2.17,0-3.58,1.3-3.58,3.75v5.81h-2.04V49.3h1.96V51
			c0.83-1.15,2.28-1.81,4.07-1.81C41.59,49.19,43.53,50.76,43.53,54.09z"/>
	</g>
</g>
<g id="Layer_2" class="st0">
	<g class="st1">
		<g>
			<path class="st3" d="M17.3,23.89H9.19C10.45,5.99,27.05,5.73,27.05,5.73l0.04,8.18C27.1,13.91,18.25,14.47,17.3,23.89z"/>
			<path class="st3" d="M27.98,13.83V5.71c17.9,1.26,18.16,17.86,18.16,17.86l-8.18,0.04C37.95,23.62,37.4,14.77,27.98,13.83z"/>
			<path class="st3" d="M37.89,24.72H46c-1.26,17.9-17.86,18.16-17.86,18.16l-0.04-8.18C28.09,34.7,36.94,34.15,37.89,24.72z"/>
			<path class="st3" d="M27.09,15.03v8.87l-8.95-0.02C18.14,23.89,18.71,15.7,27.09,15.03z"/>
			<path class="st3" d="M36.88,23.94h-8.87l0.02-8.95C28.03,14.99,36.22,15.56,36.88,23.94z"/>
			<path class="st3" d="M27.97,33.6v-8.87l8.95,0.02C36.92,24.74,36.36,32.93,27.97,33.6z"/>
			<path class="st3" d="M27.09,24.85l-8.95,0l0.08,15.3C18.22,40.15,27.23,35.53,27.09,24.85z"/>
			<path class="st3" d="M9.17,42.88V24.85h8.13v15.67C17.3,40.52,16.92,41.68,9.17,42.88z"/>
		</g>
		<path class="st3" d="M9.89,54.95c0-3.36,2.49-5.75,5.88-5.75c3.38,0,5.86,2.38,5.86,5.75c0,3.37-2.47,5.77-5.86,5.77
			C12.38,60.73,9.89,58.32,9.89,54.95z M19.55,54.95c0-2.4-1.62-3.96-3.79-3.96c-2.17,0-3.81,1.56-3.81,3.96
			c0,2.41,1.64,3.98,3.81,3.98C17.93,58.94,19.55,57.36,19.55,54.95z"/>
		<path class="st3" d="M33.01,54.95c0,3.47-2.41,5.77-5.71,5.77c-1.6,0-3-0.62-3.94-1.83v5.83h-2.04V49.31h1.96v1.79
			c0.92-1.26,2.36-1.9,4.02-1.9C30.61,49.21,33.01,51.5,33.01,54.95z M30.95,54.95c0-2.38-1.64-3.96-3.81-3.96
			c-2.15,0-3.79,1.58-3.79,3.96c0,2.41,1.64,3.98,3.79,3.98C29.31,58.94,30.95,57.36,30.95,54.95z"/>
		<path class="st3" d="M43.28,54.1v6.49h-2.04v-6.26c0-2.21-1.11-3.3-3.05-3.3c-2.17,0-3.58,1.3-3.58,3.75v5.81h-2.04V49.31h1.96
			v1.7c0.83-1.15,2.28-1.81,4.07-1.81C41.34,49.21,43.28,50.78,43.28,54.1z"/>
	</g>
</g>
<g id="Layer_3" class="st0">
	<g class="st1">
		<g>
			<path class="st4" d="M17.62,23.89H9.51C10.77,5.99,27.37,5.73,27.37,5.73l0.04,8.18C27.41,13.91,18.57,14.47,17.62,23.89z"/>
			<path class="st4" d="M28.3,13.83V5.71c17.9,1.26,18.16,17.86,18.16,17.86l-8.18,0.04C38.27,23.62,37.72,14.77,28.3,13.83z"/>
			<path class="st4" d="M38.21,24.72h8.11c-1.26,17.9-17.86,18.16-17.86,18.16l-0.04-8.18C28.41,34.7,37.26,34.15,38.21,24.72z"/>
			<path class="st4" d="M27.41,15.03v8.87l-8.95-0.02C18.46,23.89,19.02,15.7,27.41,15.03z"/>
			<path class="st4" d="M37.2,23.94h-8.87l0.02-8.95C28.35,14.99,36.54,15.56,37.2,23.94z"/>
			<path class="st4" d="M28.29,33.6v-8.87l8.95,0.02C37.24,24.74,36.67,32.93,28.29,33.6z"/>
			<path class="st4" d="M27.41,24.85l-8.95,0l0.08,15.3C18.53,40.15,27.55,35.53,27.41,24.85z"/>
			<path class="st4" d="M9.49,42.88V24.85h8.13v15.67C17.62,40.52,17.24,41.68,9.49,42.88z"/>
		</g>
		<path class="st4" d="M10.2,54.95c0-3.36,2.49-5.75,5.88-5.75c3.38,0,5.86,2.38,5.86,5.75c0,3.37-2.47,5.77-5.86,5.77
			C12.7,60.73,10.2,58.32,10.2,54.95z M19.87,54.95c0-2.4-1.62-3.96-3.79-3.96c-2.17,0-3.81,1.56-3.81,3.96
			c0,2.41,1.64,3.98,3.81,3.98C18.25,58.94,19.87,57.36,19.87,54.95z"/>
		<path class="st4" d="M33.33,54.95c0,3.47-2.41,5.77-5.71,5.77c-1.6,0-3-0.62-3.94-1.83v5.83h-2.04V49.31h1.96v1.79
			c0.92-1.26,2.36-1.9,4.02-1.9C30.93,49.21,33.33,51.5,33.33,54.95z M31.27,54.95c0-2.38-1.64-3.96-3.81-3.96
			c-2.15,0-3.79,1.58-3.79,3.96c0,2.41,1.64,3.98,3.79,3.98C29.63,58.94,31.27,57.36,31.27,54.95z"/>
		<path class="st4" d="M43.6,54.1v6.49h-2.04v-6.26c0-2.21-1.11-3.3-3.05-3.3c-2.17,0-3.58,1.3-3.58,3.75v5.81h-2.04V49.31h1.96v1.7
			c0.83-1.15,2.28-1.81,4.07-1.81C41.66,49.21,43.6,50.78,43.6,54.1z"/>
	</g>
</g>
<g id="Layer_4" class="st0">
	<g class="st1">
		<path class="st2" d="M17.13,23.89H9.02C10.28,5.99,26.89,5.73,26.89,5.73l0.04,8.18C26.93,13.91,18.08,14.47,17.13,23.89z"/>
		<path class="st2" d="M27.81,13.83V5.71c17.9,1.26,18.16,17.86,18.16,17.86l-8.18,0.04C37.79,23.62,37.23,14.77,27.81,13.83z"/>
		<path class="st2" d="M37.72,24.72h8.11c-1.26,17.9-17.86,18.16-17.86,18.16l-0.04-8.18C27.92,34.7,36.77,34.15,37.72,24.72z"/>
		<path class="st2" d="M26.92,15.03v8.87l-8.95-0.02C17.97,23.89,18.54,15.7,26.92,15.03z"/>
		<path class="st2" d="M36.72,23.94h-8.87l0.02-8.95C27.86,14.99,36.05,15.56,36.72,23.94z"/>
		<path class="st2" d="M27.81,33.6v-8.87l8.95,0.02C36.76,24.74,36.19,32.93,27.81,33.6z"/>
		<path class="st2" d="M26.92,24.85l-8.95,0l0.08,15.3C18.05,40.15,27.06,35.53,26.92,24.85z"/>
		<path class="st2" d="M9.01,42.88V24.85h8.13v15.67C17.13,40.52,16.75,41.68,9.01,42.88z"/>
	</g>
	<path class="st5" d="M9.72,54.95c0-3.36,2.49-5.75,5.88-5.75c3.38,0,5.86,2.38,5.86,5.75c0,3.37-2.47,5.77-5.86,5.77
		C12.21,60.73,9.72,58.32,9.72,54.95z M19.39,54.95c0-2.4-1.62-3.96-3.79-3.96c-2.17,0-3.81,1.56-3.81,3.96
		c0,2.41,1.64,3.98,3.81,3.98C17.77,58.94,19.39,57.36,19.39,54.95z"/>
	<path class="st5" d="M32.85,54.95c0,3.47-2.41,5.77-5.71,5.77c-1.6,0-3-0.62-3.94-1.83v5.83h-2.04V49.31h1.96v1.79
		c0.92-1.26,2.36-1.9,4.02-1.9C30.44,49.21,32.85,51.5,32.85,54.95z M30.78,54.95c0-2.38-1.64-3.96-3.81-3.96
		c-2.15,0-3.79,1.58-3.79,3.96c0,2.41,1.64,3.98,3.79,3.98C29.14,58.94,30.78,57.36,30.78,54.95z"/>
	<path class="st5" d="M43.11,54.1v6.49h-2.04v-6.26c0-2.21-1.11-3.3-3.05-3.3c-2.17,0-3.58,1.3-3.58,3.75v5.81H32.4V49.31h1.96v1.7
		c0.83-1.15,2.28-1.81,4.07-1.81C41.18,49.21,43.11,50.78,43.11,54.1z"/>
</g>
<g id="Layer_5">
	<g>
		<path class="st3" d="M17.45,24.44H9.34C10.6,6.53,27.2,6.28,27.2,6.28l0.04,8.18C27.25,14.46,18.4,15.01,17.45,24.44z"/>
		<path class="st3" d="M28.13,14.37V6.26c17.9,1.26,18.16,17.86,18.16,17.86l-8.18,0.04C38.1,24.17,37.55,15.32,28.13,14.37z"/>
		<path class="st3" d="M38.04,25.27h8.11c-1.26,17.9-17.86,18.16-17.86,18.16l-0.04-8.18C28.24,35.25,37.09,34.69,38.04,25.27z"/>
		<path class="st3" d="M27.24,15.58v8.87l-8.95-0.02C18.29,24.44,18.86,16.25,27.24,15.58z"/>
		<path class="st3" d="M37.04,24.49h-8.87l0.02-8.95C28.18,15.54,36.37,16.11,37.04,24.49z"/>
		<path class="st3" d="M28.12,34.15v-8.87l8.95,0.02C37.07,25.29,36.51,33.48,28.12,34.15z"/>
		<path class="st3" d="M27.24,25.39l-8.95,0l0.08,15.3C18.37,40.7,27.38,36.08,27.24,25.39z"/>
		<path class="st3" d="M9.32,43.43V25.4h8.13v15.67C17.45,41.06,17.07,42.22,9.32,43.43z"/>
	</g>
</g>
</svg>
