<?xml version="1.0" encoding="utf-8"?>
<!-- Generator: Adobe Illustrator 26.0.2, SVG Export Plug-In . SVG Version: 6.00 Build 0)  -->
<svg version="1.1" xmlns="http://www.w3.org/2000/svg" xmlns:xlink="http://www.w3.org/1999/xlink" x="0px" y="0px"
	 viewBox="0 0 53.62 73.19" style="enable-background:new 0 0 53.62 73.19;" xml:space="preserve">
<style type="text/css">
	.st0{display:none;}
	.st1{display:inline;}
	.st2{fill:#FFDD06;}
	.st3{fill:#010202;}
</style>
<g id="Layer_1" class="st0">
	<g class="st1">
		<g>
			<path class="st2" d="M17.54,26.35H9.43C10.7,8.45,27.3,8.19,27.3,8.19l0.04,8.18C27.34,16.37,18.49,16.93,17.54,26.35z"/>
			<path class="st2" d="M28.22,16.29V8.17c17.9,1.26,18.16,17.86,18.16,17.86l-8.18,0.04C38.2,26.08,37.64,17.23,28.22,16.29z"/>
			<path class="st2" d="M38.13,27.18h8.11c-1.26,17.9-17.86,18.16-17.86,18.16l-0.04-8.18C28.34,37.16,37.18,36.61,38.13,27.18z"/>
			<path class="st2" d="M27.33,17.49v8.87l-8.95-0.02C18.38,26.35,18.95,18.16,27.33,17.49z"/>
			<path class="st2" d="M37.13,26.4h-8.87l0.02-8.95C28.27,17.45,36.46,18.02,37.13,26.4z"/>
			<path class="st2" d="M28.22,36.06v-8.87l8.95,0.02C37.17,27.2,36.6,35.39,28.22,36.06z"/>
			<path class="st2" d="M27.33,27.31l-8.95,0l0.08,15.3C18.46,42.61,27.47,37.99,27.33,27.31z"/>
			<path class="st2" d="M9.42,45.34V27.31h8.13v15.67C17.54,42.98,17.16,44.14,9.42,45.34z"/>
		</g>
		<path class="st2" d="M10.13,57.41c0-3.36,2.49-5.75,5.88-5.75c3.38,0,5.86,2.38,5.86,5.75c0,3.37-2.47,5.77-5.86,5.77
			C12.62,63.18,10.13,60.78,10.13,57.41z M19.8,57.41c0-2.4-1.62-3.96-3.79-3.96c-2.17,0-3.81,1.56-3.81,3.96
			c0,2.41,1.64,3.98,3.81,3.98C18.18,61.4,19.8,59.82,19.8,57.41z"/>
		<path class="st2" d="M33.26,57.41c0,3.47-2.41,5.77-5.71,5.77c-1.6,0-3-0.62-3.94-1.83v5.83h-2.04V51.77h1.96v1.79
			c0.92-1.26,2.36-1.9,4.02-1.9C30.85,51.67,33.26,53.96,33.26,57.41z M31.19,57.41c0-2.38-1.64-3.96-3.81-3.96
			c-2.15,0-3.79,1.58-3.79,3.96c0,2.41,1.64,3.98,3.79,3.98C29.55,61.4,31.19,59.82,31.19,57.41z"/>
		<path class="st2" d="M43.53,56.56v6.49h-2.04V56.8c0-2.21-1.11-3.3-3.05-3.3c-2.17,0-3.58,1.3-3.58,3.75v5.81h-2.04V51.77h1.96
			v1.7c0.83-1.15,2.28-1.81,4.07-1.81C41.59,51.67,43.53,53.24,43.53,56.56z"/>
	</g>
</g>
<g id="Layer_2">
	<g>
		<g>
			<path class="st3" d="M17.3,26.36H9.19C10.45,8.46,27.05,8.21,27.05,8.21l0.04,8.18C27.1,16.39,18.25,16.94,17.3,26.36z"/>
			<path class="st3" d="M27.98,16.3V8.19c17.9,1.26,18.16,17.86,18.16,17.86l-8.18,0.04C37.95,26.1,37.4,17.25,27.98,16.3z"/>
			<path class="st3" d="M37.89,27.2H46c-1.26,17.9-17.86,18.16-17.86,18.16l-0.04-8.18C28.09,37.18,36.94,36.62,37.89,27.2z"/>
			<path class="st3" d="M27.09,17.51v8.87l-8.95-0.02C18.14,26.36,18.71,18.17,27.09,17.51z"/>
			<path class="st3" d="M36.88,26.42h-8.87l0.02-8.95C28.03,17.47,36.22,18.04,36.88,26.42z"/>
			<path class="st3" d="M27.97,36.07V27.2l8.95,0.02C36.92,27.22,36.36,35.41,27.97,36.07z"/>
			<path class="st3" d="M27.09,27.32l-8.95,0l0.08,15.3C18.22,42.62,27.23,38.01,27.09,27.32z"/>
			<path class="st3" d="M9.17,45.36V27.32h8.13v15.67C17.3,42.99,16.92,44.15,9.17,45.36z"/>
		</g>
		<path class="st3" d="M9.89,57.43c0-3.36,2.49-5.75,5.88-5.75c3.38,0,5.86,2.38,5.86,5.75c0,3.37-2.47,5.77-5.86,5.77
			C12.38,63.2,9.89,60.79,9.89,57.43z M19.55,57.43c0-2.4-1.62-3.96-3.79-3.96c-2.17,0-3.81,1.56-3.81,3.96
			c0,2.41,1.64,3.98,3.81,3.98C17.93,61.41,19.55,59.84,19.55,57.43z"/>
		<path class="st3" d="M33.01,57.43c0,3.47-2.41,5.77-5.71,5.77c-1.6,0-3-0.62-3.94-1.83v5.83h-2.04V51.79h1.96v1.79
			c0.92-1.26,2.36-1.9,4.02-1.9C30.61,51.68,33.01,53.98,33.01,57.43z M30.95,57.43c0-2.38-1.64-3.96-3.81-3.96
			c-2.15,0-3.79,1.58-3.79,3.96c0,2.41,1.64,3.98,3.79,3.98C29.31,61.41,30.95,59.84,30.95,57.43z"/>
		<path class="st3" d="M43.28,56.58v6.49h-2.04v-6.26c0-2.21-1.11-3.3-3.05-3.3c-2.17,0-3.58,1.3-3.58,3.75v5.81h-2.04V51.79h1.96
			v1.7c0.83-1.15,2.28-1.81,4.07-1.81C41.34,51.68,43.28,53.26,43.28,56.58z"/>
	</g>
</g>
</svg>
